<svg xmlns="http://www.w3.org/2000/svg" width="13px" height="14px" viewBox="0 0 13 14" version="1.1">
<g>
<path style="fill:#fff;" d="M 4.359375 7.65625 L 3.183594 7.65625 C 2.988281 7.65625 2.828125 7.511719 2.828125 7.335938 L 2.828125 6.273438 C 2.828125 6.097656 2.988281 5.953125 3.183594 5.953125 L 4.359375 5.953125 C 4.554688 5.953125 4.71875 6.097656 4.71875 6.273438 L 4.71875 7.335938 C 4.71875 7.511719 4.554688 7.65625 4.359375 7.65625 Z M 7.546875 7.335938 L 7.546875 6.273438 C 7.546875 6.097656 7.386719 5.953125 7.191406 5.953125 L 6.011719 5.953125 C 5.816406 5.953125 5.65625 6.097656 5.65625 6.273438 L 5.65625 7.335938 C 5.65625 7.511719 5.816406 7.65625 6.011719 7.65625 L 7.191406 7.65625 C 7.386719 7.65625 7.546875 7.511719 7.546875 7.335938 Z M 10.375 7.335938 L 10.375 6.273438 C 10.375 6.097656 10.214844 5.953125 10.019531 5.953125 L 8.84375 5.953125 C 8.648438 5.953125 8.484375 6.097656 8.484375 6.273438 L 8.484375 7.335938 C 8.484375 7.511719 8.648438 7.65625 8.84375 7.65625 L 10.019531 7.65625 C 10.214844 7.65625 10.375 7.511719 10.375 7.335938 Z M 7.546875 9.890625 L 7.546875 8.824219 C 7.546875 8.652344 7.386719 8.507812 7.191406 8.507812 L 6.011719 8.507812 C 5.816406 8.507812 5.65625 8.652344 5.65625 8.824219 L 5.65625 9.890625 C 5.65625 10.0625 5.816406 10.207031 6.011719 10.207031 L 7.191406 10.207031 C 7.386719 10.207031 7.546875 10.0625 7.546875 9.890625 Z M 4.71875 9.890625 L 4.71875 8.824219 C 4.71875 8.652344 4.554688 8.507812 4.359375 8.507812 L 3.183594 8.507812 C 2.988281 8.507812 2.828125 8.652344 2.828125 8.824219 L 2.828125 9.890625 C 2.828125 10.0625 2.988281 10.207031 3.183594 10.207031 L 4.359375 10.207031 C 4.554688 10.207031 4.71875 10.0625 4.71875 9.890625 Z M 10.375 9.890625 L 10.375 8.824219 C 10.375 8.652344 10.214844 8.507812 10.019531 8.507812 L 8.84375 8.507812 C 8.648438 8.507812 8.484375 8.652344 8.484375 8.824219 L 8.484375 9.890625 C 8.484375 10.0625 8.648438 10.207031 8.84375 10.207031 L 10.019531 10.207031 C 10.214844 10.207031 10.375 10.0625 10.375 9.890625 Z M 13.203125 2.976562 L 13.203125 12.335938 C 13.203125 13.042969 12.570312 13.609375 11.785156 13.609375 L 1.417969 13.609375 C 0.636719 13.609375 0 13.042969 0 12.335938 L 0 2.976562 C 0 2.269531 0.636719 1.703125 1.417969 1.703125 L 2.828125 1.703125 L 2.828125 0.320312 C 2.828125 0.144531 2.988281 0 3.183594 0 L 4.359375 0 C 4.554688 0 4.71875 0.144531 4.71875 0.320312 L 4.71875 1.703125 L 8.484375 1.703125 L 8.484375 0.320312 C 8.484375 0.144531 8.648438 0 8.84375 0 L 10.019531 0 C 10.214844 0 10.375 0.144531 10.375 0.320312 L 10.375 1.703125 L 11.785156 1.703125 C 12.570312 1.703125 13.203125 2.269531 13.203125 2.976562 Z M 11.785156 12.175781 L 11.785156 4.253906 L 1.417969 4.253906 L 1.417969 12.175781 C 1.417969 12.261719 1.496094 12.335938 1.589844 12.335938 L 11.613281 12.335938 C 11.707031 12.335938 11.785156 12.261719 11.785156 12.175781 Z M 11.785156 12.175781 "/>
</g>
</svg>
