<svg xmlns="http://www.w3.org/2000/svg" width="11px" height="14px" viewBox="0 0 11 14" version="1.1">
<g>
<path style="fill:#fff;" d="M 5.5 7.875 C 7.207031 7.875 8.59375 6.109375 8.59375 3.9375 C 8.59375 1.765625 7.207031 0 5.5 0 C 3.792969 0 2.40625 1.765625 2.40625 3.9375 C 2.40625 6.109375 3.792969 7.875 5.5 7.875 Z M 8.25 8.75 L 7.066406 8.75 C 6.589844 9.027344 6.058594 9.1875 5.5 9.1875 C 4.941406 9.1875 4.414062 9.027344 3.933594 8.75 L 2.75 8.75 C 1.230469 8.75 0 10.316406 0 12.25 L 0 12.6875 C 0 13.414062 0.460938 14 1.03125 14 L 9.96875 14 C 10.539062 14 11 13.414062 11 12.6875 L 11 12.25 C 11 10.316406 9.769531 8.75 8.25 8.75 Z M 8.25 8.75 "/>
</g>
</svg>
